<?xml version="1.0" encoding="utf-8"?><!-- Uploaded to: SVG Repo, www.svgrepo.com, Generator: SVG Repo Mixer Tools -->
<svg fill="#000000" width="800px" height="800px" viewBox="0 0 24 24" id="exchange-5" data-name="Flat Line" xmlns="http://www.w3.org/2000/svg" class="icon flat-line"><path id="secondary" d="M7,3a4,4,0,1,0,4,4A4,4,0,0,0,7,3ZM17,21a4,4,0,1,0-4-4A4,4,0,0,0,17,21Z" style="fill: rgb(44, 169, 188); stroke-width: 2;"></path><path id="primary" d="M14.57,4.43a8,8,0,0,1,3.09,1.91,8.13,8.13,0,0,1,2,3.3" style="fill: none; stroke: rgb(0, 0, 0); stroke-linecap: round; stroke-linejoin: round; stroke-width: 2;"></path><polyline id="primary-2" data-name="primary" points="17.85 8.81 19.66 9.65 20.5 7.84" style="fill: none; stroke: rgb(0, 0, 0); stroke-linecap: round; stroke-linejoin: round; stroke-width: 2;"></polyline><path id="primary-3" data-name="primary" d="M4.35,14.36a8.13,8.13,0,0,0,2,3.3,8,8,0,0,0,3.09,1.91" style="fill: none; stroke: rgb(0, 0, 0); stroke-linecap: round; stroke-linejoin: round; stroke-width: 2;"></path><polyline id="primary-4" data-name="primary" points="6.15 15.19 4.34 14.35 3.5 16.16" style="fill: none; stroke: rgb(0, 0, 0); stroke-linecap: round; stroke-linejoin: round; stroke-width: 2;"></polyline><path id="primary-5" data-name="primary" d="M7,3a4,4,0,1,0,4,4A4,4,0,0,0,7,3ZM17,21a4,4,0,1,0-4-4A4,4,0,0,0,17,21Z" style="fill: none; stroke: rgb(0, 0, 0); stroke-linecap: round; stroke-linejoin: round; stroke-width: 2;"></path></svg>