<?xml version="1.0" encoding="UTF-8"?>
<svg id="Layer_1" data-name="Layer 1" xmlns="http://www.w3.org/2000/svg" viewBox="0 0 512 512">
  <defs>
    <style>
      .cls-1 {
        stroke: #483de0;
      }

      .cls-1, .cls-2 {
        fill: none;
        stroke-linecap: round;
        stroke-linejoin: round;
        stroke-width: 10px;
      }

      .cls-2 {
        stroke: #1e1e1e;
      }

      .cls-3 {
        fill: #483de0;
      }
    </style>
  </defs>
  <path class="cls-2" d="m96.05,184.93V61.27c0-25,20.27-45.27,45.27-45.27h137.59l147.58,147.58v168.29"/>
  <path class="cls-2" d="m96.05,368.71v48.48c0,25,20.27,45.27,45.27,45.27h193.44"/>
  <path class="cls-2" d="m278.92,146.6V16l147.58,147.58h-130.6c-9.38,0-16.98-7.6-16.98-16.98Z"/>
  <rect class="cls-2" x="19.01" y="210.92" width="323.01" height="131.8" rx="18" ry="18"/>
  <g>
    <path class="cls-3" d="m132.58,310.45c0,1.3-.8,2.48-2.02,2.93-2.74,1-5.4,1.77-8,2.32-3.23.67-6.59,1.01-10.08,1.01-5.59,0-10.53-.82-14.83-2.47-4.3-1.65-7.93-4.09-10.88-7.34-2.95-3.25-5.19-7.28-6.72-12.1-1.53-4.81-2.29-10.41-2.29-16.79s.83-12.35,2.5-17.44c1.66-5.09,4.04-9.39,7.13-12.9,3.09-3.51,6.84-6.18,11.26-8.02,4.42-1.84,9.38-2.76,14.89-2.76,1.78,0,3.46.04,5.02.12,1.57.08,3.1.23,4.61.45,1.51.22,3.03.51,4.58.86.02,0,.03,0,.05.01,2.81.65,4.77,3.21,4.77,6.1v.64c0,4.13-3.9,7.24-7.88,6.16-.59-.16-1.17-.3-1.75-.43-3.05-.67-5.82-1.01-8.32-1.01-3.68,0-6.84.66-9.45,1.99-2.61,1.33-4.76,3.19-6.45,5.59-1.68,2.4-2.92,5.25-3.71,8.56-.79,3.31-1.19,6.94-1.19,10.91,0,4.2.41,7.96,1.22,11.26.81,3.31,2.07,6.11,3.77,8.41,1.7,2.3,3.88,4.05,6.54,5.26,2.66,1.21,5.81,1.81,9.45,1.81,1.31,0,2.72-.13,4.25-.39,1.53-.26,3.07-.6,4.64-1.01s3.11-.91,4.64-1.49c.02,0,.03-.01.05-.02,2.03-.77,4.2.71,4.2,2.88v6.9Z"/>
    <path class="cls-3" d="m206.54,292.16c0,4.24-.78,7.92-2.35,11.05-1.57,3.13-3.76,5.72-6.57,7.76-2.81,2.04-6.16,3.56-10.05,4.55-3.88.99-8.12,1.49-12.72,1.49-4.08,0-8.02-.24-11.83-.71-3-.37-5.97-.94-8.91-1.71-1.41-.37-2.38-1.68-2.38-3.13v-7.54c0-2.17,2.07-3.72,4.15-3.1.51.15,1.03.3,1.56.45,1.98.56,3.97,1.04,5.97,1.46s3.99.74,5.97.98c1.98.24,3.9.36,5.77.36,2.77,0,5.13-.24,7.07-.71,1.94-.48,3.53-1.13,4.76-1.96,1.23-.83,2.12-1.82,2.67-2.97.55-1.15.83-2.42.83-3.81,0-1.9-.55-3.5-1.63-4.79-1.09-1.29-2.53-2.43-4.31-3.42s-3.81-1.88-6.09-2.67c-2.28-.79-4.6-1.64-6.95-2.56-2.36-.91-4.68-1.94-6.95-3.09-2.28-1.15-4.31-2.57-6.09-4.28-1.78-1.7-3.22-3.73-4.31-6.09-1.09-2.36-1.63-5.2-1.63-8.53,0-3.05.55-5.94,1.66-8.68,1.11-2.73,2.85-5.12,5.23-7.16,2.38-2.04,5.43-3.66,9.15-4.87,3.72-1.21,8.22-1.81,13.49-1.81,1.55,0,3.16.07,4.84.21,1.68.14,3.35.32,4.99.53,1.64.22,3.23.48,4.76.77.57.11,1.12.22,1.65.34,1.49.32,2.54,1.65,2.54,3.17v6.37c0,2.15-2.04,3.67-4.12,3.12-.02,0-.03,0-.05-.01-1.51-.4-3.06-.74-4.67-1.04s-3.22-.53-4.84-.68c-1.63-.16-3.17-.24-4.64-.24-2.58,0-4.76.21-6.54.63-1.78.42-3.25.99-4.4,1.72-1.15.73-1.98,1.63-2.5,2.7-.52,1.07-.77,2.26-.77,3.57,0,1.62.54,3.02,1.63,4.19,1.09,1.17,2.54,2.22,4.34,3.15,1.8.93,3.84,1.8,6.12,2.61,2.28.81,4.62,1.69,7.01,2.62,2.4.93,4.73,1.99,7.01,3.18,2.28,1.19,4.32,2.64,6.12,4.34,1.8,1.7,3.25,3.71,4.34,6.03,1.09,2.32,1.63,5.06,1.63,8.23Z"/>
    <path class="cls-3" d="m252.34,315.64h0c-5.76,0-10.84-3.76-12.53-9.27l-17.97-58.87c-1.45-4.75,2.1-9.54,7.06-9.54h1.01c3.31,0,6.22,2.2,7.11,5.39l11.62,41.39,3.75,13.64c.13.47.8.47.93,0l3.94-14.53,11.49-40.52c.9-3.18,3.8-5.37,7.1-5.37h0c4.97,0,8.52,4.8,7.06,9.55l-18.06,58.88c-1.69,5.5-6.77,9.26-12.52,9.26Z"/>
  </g>
  <g>
    <circle class="cls-2" cx="426.5" cy="429.5" r="66.5"/>
    <polyline class="cls-1" points="426.5 459.39 426.5 399.61 450.7 423.82 426.5 399.61 402.29 423.82"/>
  </g>
</svg>