<?xml version="1.0" encoding="UTF-8"?>
<svg id="Layer_1" data-name="Layer 1" xmlns="http://www.w3.org/2000/svg" viewBox="0 0 512 512">
  <defs>
    <style>
      .cls-1 {
        stroke: #483de0;
      }

      .cls-1, .cls-2, .cls-3 {
        stroke-linecap: round;
        stroke-linejoin: round;
        stroke-width: 10px;
      }

      .cls-1, .cls-3 {
        fill: none;
      }

      .cls-2 {
        fill: #483de0;
      }

      .cls-2, .cls-3 {
        stroke: #1e1e1e;
      }
    </style>
  </defs>
  <g>
    <path class="cls-3" d="m157.55,435.66v-61.03c0-7.41-6.01-13.44-13.44-13.44H36.19c-7.43,0-13.44,6.03-13.44,13.44v107.93c0,7.41,6.01,13.44,13.44,13.44h107.92c7.43,0,13.44-6.03,13.44-13.44v-24.49"/>
    <path class="cls-2" d="m66.11,361.2h48.07v36.07c0,6.62-5.38,12-12,12h-24.07c-6.62,0-12-5.38-12-12v-36.07h0Z"/>
  </g>
  <g>
    <path class="cls-3" d="m466.89,496h8.93c7.43,0,13.44-6.03,13.44-13.44v-107.93c0-7.41-6.01-13.44-13.44-13.44h-107.92c-7.43,0-13.44,6.03-13.44,13.44v107.93c0,7.41,6.01,13.44,13.44,13.44h73.31"/>
    <path class="cls-2" d="m397.82,361.2h48.07v36.07c0,6.62-5.38,12-12,12h-24.07c-6.62,0-12-5.38-12-12v-36.07h0Z"/>
  </g>
  <path class="cls-3" d="m306.68,151.44h5.41c7.43,0,13.44,6.01,13.44,13.44v51.88c0,7.41-6.01,13.44-13.44,13.44h-112.17c-7.43,0-13.44-6.03-13.44-13.44v-51.88c0-7.43,6.01-13.44,13.44-13.44h5.42"/>
  <path class="cls-1" d="m256.01,16c-32.64,0-59.1,26.46-59.1,59.1,0,.67.06,1.57.17,2.61.9,8.85,3.6,17.42,7.73,25.3l49.29,94.16c.81,1.54,3.01,1.54,3.82,0l45.29-86.54,3.98-7.62c4.13-7.88,6.82-16.45,7.73-25.3.11-1.03.17-1.94.17-2.61,0-32.64-26.46-59.1-59.08-59.1Zm-.02,88.85c-17.05,0-30.9-13.82-30.9-30.89s13.84-30.92,30.9-30.92,30.92,13.84,30.92,30.92-13.84,30.89-30.92,30.89Z"/>
  <path class="cls-3" d="m421.86,344.12v-17.77c0-7.42-6.02-13.44-13.44-13.44H103.59c-7.42,0-13.44,6.02-13.44,13.44v17.77"/>
  <line class="cls-3" x1="256" y1="311.64" x2="256" y2="249.21"/>
</svg>