<?xml version="1.0" encoding="UTF-8"?>
<svg id="Layer_1" data-name="Layer 1" xmlns="http://www.w3.org/2000/svg" viewBox="0 0 512 512">
  <defs>
    <style>
      .cls-1 {
        stroke: #483de0;
      }

      .cls-1, .cls-2 {
        fill: none;
        stroke-linecap: round;
        stroke-linejoin: round;
        stroke-width: 10px;
      }

      .cls-2 {
        stroke: #1e1e1e;
      }

      .cls-3 {
        fill: #1e1e1e;
      }
    </style>
  </defs>
  <circle class="cls-2" cx="402.71" cy="438.66" r="43.96"/>
  <circle class="cls-2" cx="123.15" cy="438.66" r="43.96"/>
  <path class="cls-2" d="m56.97,401.22H16v-219.62c0-10.62,8.62-19.24,19.24-19.24h79.38"/>
  <path class="cls-2" d="m218.09,162.36h79.37c10.64,0,19.24,8.61,19.24,19.24v219.62h-127.37"/>
  <polyline class="cls-2" points="336.53 401.22 316.7 401.22 189.32 401.22"/>
  <path class="cls-2" d="m468.9,401.22h27.1v19.5c0,9.96-7.56,18.14-17.23,19.14"/>
  <polyline class="cls-2" points="56.97 401.22 16 401.22 16 439.95 47.1 439.95"/>
  <polyline class="cls-2" points="468.9 401.22 496 401.22 496 294.54 449.25 214.55 316.7 214.55 316.7 401.22 336.53 401.22"/>
  <polygon class="cls-2" points="448.33 320.57 351.64 320.57 351.64 263.86 417.54 263.86 448.33 320.57"/>
  <g>
    <polygon id="polygon10" class="cls-3" points="230.02 269.27 238.35 278.44 246.36 269.27 263.47 269.27 246.75 288.07 263.7 307.03 245.9 307.03 237.66 297.79 229.49 307.03 212.3 307.03 229.1 288.15 212.3 269.27 230.02 269.27"/>
    <polygon id="polygon12" class="cls-3" points="212.3 269.27 212.3 282.03 193.27 282.03 193.27 293.74 212.3 293.74 212.3 307.03 179.28 307.03 179.28 247.55 212.3 247.55 212.3 260.81 193.27 260.81 193.27 269.27 212.3 269.27"/>
    <path id="path14" d="m165.35,247.55v24.34h-.15c-3.09-3.54-6.94-4.78-11.41-4.78-9.16,0-16.05,6.23-18.47,14.46-2.76-9.07-9.89-14.63-20.44-14.63-8.57,0-15.35,3.85-18.88,10.12v-7.8h-17.73v-8.46h19.34v-13.26h-35.14v59.48h15.8v-25h15.75c-.47,1.84-.72,3.8-.72,5.88,0,12.41,9.48,21.12,21.58,21.12,10.17,0,16.88-4.78,20.42-13.48h-13.54c-1.83,2.62-3.22,3.39-6.88,3.39-4.25,0-7.91-3.7-7.91-8.09h27.57c1.2,9.85,8.87,18.35,19.41,18.35,4.54,0,8.71-2.24,11.25-6.01h.15v3.85h13.93v-59.49h-13.92Zm-57.94,34.66c.88-3.78,3.81-6.25,7.47-6.25,4.03,0,6.81,2.39,7.54,6.25.31,0-15.01,0-15.01,0Zm49.49,15.77c-5.13,0-8.33-4.78-8.33-9.78,0-5.34,2.78-10.47,8.33-10.47s8.05,5.13,8.05,10.47c0,5.06-2.43,9.78-8.05,9.78Z"/>
    <path id="path16" class="cls-3" d="m179.28,336.78v-21.32h11.78v1.59h-9.84v7.86h9.42v1.59h-9.42v8.68h10.27v1.59h-12.22Z"/>
    <path id="path18" class="cls-3" d="m192.91,336.78l5.74-7.66-5.45-7.24h2.21l4.45,5.92,4.36-5.92h2.21l-5.53,7.24,5.77,7.66h-2.24l-4.77-6.33-4.53,6.33h-2.21Z"/>
    <path id="path20" class="cls-3" d="m210.39,342.37h-1.8v-16.04c0-1.47,0-2.97-.09-4.45h1.77l.06,2.24c1.12-1.77,2.59-2.59,4.8-2.59,4.59,0,6.56,3.8,6.56,7.8s-1.97,7.8-6.56,7.8c-2.06,0-3.68-.79-4.74-2.5,0,0,0,7.74,0,7.74Zm9.39-13.04c0-3.18-1.33-6.3-4.86-6.3-3.33,0-4.53,2.74-4.53,6.3s1.21,6.3,4.53,6.3c3.53,0,4.86-3.12,4.86-6.3Z"/>
    <path id="path22" class="cls-3" d="m230.93,323.26c-2.97,0-4.01,2.5-4.01,5.09v8.42h-1.8v-10.51c0-1.44-.03-2.91-.09-4.38h1.77l.11,2.15c.88-1.7,2.36-2.5,4.33-2.5.27,0,.56.03.82.06v1.8c-.41-.06-.74-.12-1.15-.12Z"/>
    <path id="path24" class="cls-3" d="m234.28,329.65c0,3.35,1.59,6.12,4.85,6.12,2.53,0,3.71-1.68,4.15-3.35h1.71c-.8,3.12-2.71,4.71-6.1,4.71-4.53,0-6.54-3.36-6.54-7.54s2.09-8.07,6.77-8.07,6.01,4.15,6.01,8.12h-10.86Zm.06-1.35h8.89c0-2.92-1.38-5.42-4.21-5.42-2.56,0-4.33,1.94-4.68,5.42Z"/>
    <path id="path26" class="cls-3" d="m252.15,337.13c-3.06,0-5.36-1.44-5.36-4.71h1.8c0,2.24,1.47,3.35,3.65,3.35,2.03,0,3.62-.97,3.62-2.97,0-1.8-1.85-2.27-3.8-2.83-2.35-.68-4.92-1.41-4.92-4.3,0-3.21,2.68-4.15,5.18-4.15,2.88,0,5.03,1.12,5.12,4.21h-1.8c-.09-1.76-1.35-2.76-3.27-2.76-1.5,0-3.33.59-3.33,2.53,0,1.77,1.83,2.27,3.77,2.8,2.36.65,4.95,1.35,4.95,4.24,0,3.35-2.59,4.59-5.63,4.59Z"/>
    <path id="path28" class="cls-3" d="m264.6,337.13c-3.06,0-5.36-1.44-5.36-4.71h1.8c0,2.24,1.47,3.35,3.65,3.35,2.03,0,3.62-.97,3.62-2.97,0-1.8-1.86-2.27-3.8-2.83-2.35-.68-4.91-1.41-4.91-4.3,0-3.21,2.68-4.15,5.18-4.15,2.88,0,5.03,1.12,5.12,4.21h-1.8c-.09-1.76-1.35-2.76-3.27-2.76-1.5,0-3.33.59-3.33,2.53,0,1.77,1.83,2.27,3.77,2.8,2.36.65,4.95,1.35,4.95,4.24,0,3.35-2.6,4.59-5.63,4.59h0Z"/>
  </g>
  <path class="cls-1" d="m166.36,29.37c-32.94,0-59.65,26.71-59.65,59.65,0,.67.07,1.59.17,2.63.91,8.93,3.63,17.58,7.8,25.53l49.75,95.05c.81,1.55,3.04,1.55,3.85,0l45.71-87.35,4.02-7.69c4.17-7.95,6.89-16.6,7.8-25.53.11-1.04.17-1.96.17-2.63,0-32.94-26.71-59.65-59.63-59.65Zm-.02,89.69c-17.21,0-31.18-13.95-31.18-31.18s13.97-31.21,31.18-31.21,31.21,13.97,31.21,31.21-13.97,31.18-31.21,31.18Z"/>
</svg>