<?xml version="1.0" encoding="UTF-8"?>
<svg id="Layer_1" data-name="Layer 1" xmlns="http://www.w3.org/2000/svg" viewBox="0 0 512 512">
  <defs>
    <style>
      .cls-1 {
        stroke: #483de0;
      }

      .cls-1, .cls-2, .cls-3 {
        stroke-linecap: round;
        stroke-linejoin: round;
        stroke-width: 10px;
      }

      .cls-1, .cls-3 {
        fill: none;
      }

      .cls-2 {
        fill: #483de0;
      }

      .cls-2, .cls-3 {
        stroke: #1e1e1e;
      }
    </style>
  </defs>
  <g>
    <path class="cls-3" d="m282.52,261.82V93.54c0-19.25-15.6-34.86-34.86-34.86H50.86c-19.25,0-34.86,15.61-34.86,34.86v332.99c0,19.25,15.61,34.86,34.86,34.86h196.8c3.08,0,6.07-.4,8.91-1.15"/>
    <g>
      <line class="cls-3" x1="114.11" y1="86.88" x2="184.42" y2="86.88"/>
      <line class="cls-3" x1="114.11" y1="433.2" x2="184.42" y2="433.2"/>
    </g>
    <g>
      <g>
        <path class="cls-3" d="m209.23,192.25v-54.3c0-6.6-5.35-11.96-11.96-11.96h-96.02c-6.61,0-11.96,5.36-11.96,11.96v96.03c0,6.6,5.35,11.96,11.96,11.96h96.02c6.61,0,11.96-5.36,11.96-11.96v-21.79"/>
        <path class="cls-2" d="m127.87,125.99h42.77v30.77c0,6.62-5.38,12-12,12h-18.77c-6.62,0-12-5.38-12-12v-30.77h0Z"/>
      </g>
      <g>
        <line class="cls-3" x1="101.23" y1="304.81" x2="197.28" y2="304.81"/>
        <line class="cls-3" x1="210.53" y1="281.16" x2="87.98" y2="281.16"/>
      </g>
      <g>
        <polyline class="cls-1" points="136.5 366.85 145.14 375.5 162.02 358.62"/>
        <circle class="cls-1" cx="149.26" cy="367.06" r="27.03"/>
      </g>
    </g>
  </g>
  <path class="cls-1" d="m406.66,50.61c-18.14,0-32.85,14.71-32.85,32.85,0,.37.04.87.1,1.45.5,4.92,2,9.68,4.3,14.06l27.4,52.35c.45.86,1.67.86,2.12,0l25.17-48.11,2.21-4.24c2.3-4.38,3.79-9.14,4.3-14.06.06-.57.1-1.08.1-1.45,0-18.14-14.71-32.85-32.84-32.85Zm-.01,49.39c-9.48,0-17.17-7.68-17.17-17.17s7.7-17.19,17.17-17.19,17.19,7.7,17.19,17.19-7.7,17.17-17.19,17.17Z"/>
  <path class="cls-3" d="m403.5,176.9c45.05,2.61,77.3,51.82-13.33,44.28-95.24-7.92-88.79,27.11-75.51,35.76,2.87,1.87,7.93,4.38,12.44,6.5"/>
  <line class="cls-3" x1="404.89" y1="433.2" x2="346.86" y2="433.2"/>
  <g>
    <circle class="cls-3" cx="447.46" cy="431.55" r="22.87"/>
    <circle class="cls-3" cx="302" cy="431.55" r="22.87"/>
    <path class="cls-3" d="m336.44,412.07h66.27v-114.27c0-5.52-4.47-10.01-10.01-10.01h-136.44c-5.52,0-10.01,4.48-10.01,10.01v114.27h21.31"/>
    <polyline class="cls-3" points="413.03 412.07 402.71 412.07 336.44 412.07"/>
    <path class="cls-3" d="m481.9,412.07h14.1v10.15c0,5.18-3.93,9.44-8.97,9.96"/>
    <polyline class="cls-3" points="267.57 412.07 246.26 412.07 246.26 432.22 262.44 432.22"/>
    <polyline class="cls-3" points="481.9 412.07 496 412.07 496 356.56 471.67 314.94 402.71 314.94 402.71 412.07 413.03 412.07"/>
    <polygon class="cls-3" points="471.2 370.1 420.89 370.1 420.89 340.6 455.18 340.6 471.2 370.1"/>
    <g>
      <line class="cls-3" x1="277.12" y1="325.32" x2="277.12" y2="367.87"/>
      <line class="cls-3" x1="308.7" y1="325.32" x2="308.7" y2="367.87"/>
      <line class="cls-3" x1="340.27" y1="325.32" x2="340.27" y2="367.87"/>
      <line class="cls-3" x1="371.84" y1="325.32" x2="371.84" y2="367.87"/>
    </g>
  </g>
</svg>