<svg width="28" height="26" viewBox="0 0 28 26" fill="none" xmlns="http://www.w3.org/2000/svg">
<path d="M16.8158 15.8474H0.438477V21.9267H16.8158V15.8474Z" fill="#FFD652"/>
<path d="M26.6845 15.8474H24.2879V10.1773C24.2879 9.69313 23.8953 9.30054 23.4111 9.30054H16.8057L16.8154 21.9268H27.5614V16.7243C27.5614 16.24 27.1689 15.8474 26.6845 15.8474Z" fill="#FFD652"/>
<path d="M22.6512 10.7034H18.4424V14.4445H22.6512V10.7034Z" fill="#C4EDFD"/>
<path d="M21.0539 10.7034L18.4429 13.3144V14.1327L21.8722 10.7034H21.0539Z" fill="white"/>
<path d="M22.3788 10.7034L18.6377 14.4445H20.3134L22.6515 12.1063V10.7034H22.3788Z" fill="white"/>
<path d="M26.6847 21.6929H1.31529C0.83107 21.6929 0.438477 21.3003 0.438477 20.8161V19.3547H27.5616V20.8161C27.5616 21.3003 27.1691 21.6929 26.6847 21.6929Z" fill="#FB9D46"/>
<path d="M26.6847 22.8618H1.31529C0.83107 22.8618 0.438477 22.4693 0.438477 21.985V20.5237H27.5616V21.985C27.5616 22.4693 27.1691 22.8618 26.6847 22.8618Z" fill="#FF7452"/>
<path d="M6.75145 24.9663C8.68848 24.9663 10.2588 23.396 10.2588 21.459C10.2588 19.5219 8.68848 17.9517 6.75145 17.9517C4.81441 17.9517 3.24414 19.5219 3.24414 21.459C3.24414 23.396 4.81441 24.9663 6.75145 24.9663Z" fill="#808080"/>
<path d="M7.74515 23.9725C5.8081 23.9725 4.23784 22.4022 4.23784 20.4652C4.23784 19.7508 4.45195 19.0867 4.81872 18.5325C3.87012 19.1603 3.24414 20.2363 3.24414 21.4589C3.24414 23.396 4.8144 24.9663 6.75145 24.9663C7.9741 24.9663 9.05012 24.3403 9.67787 23.3917C9.12368 23.7584 8.45954 23.9725 7.74515 23.9725Z" fill="#666666"/>
<path d="M6.751 23.096C7.65494 23.096 8.38774 22.3632 8.38774 21.4592C8.38774 20.5553 7.65494 19.8225 6.751 19.8225C5.84705 19.8225 5.11426 20.5553 5.11426 21.4592C5.11426 22.3632 5.84705 23.096 6.751 23.096Z" fill="#458FDE"/>
<path d="M20.5464 24.9663C22.4834 24.9663 24.0537 23.396 24.0537 21.459C24.0537 19.5219 22.4834 17.9517 20.5464 17.9517C18.6093 17.9517 17.0391 19.5219 17.0391 21.459C17.0391 23.396 18.6093 24.9663 20.5464 24.9663Z" fill="#808080"/>
<path d="M21.5406 23.9725C19.6035 23.9725 18.0332 22.4022 18.0332 20.4652C18.0332 19.7508 18.2474 19.0867 18.6141 18.5325C17.6655 19.1602 17.0396 20.2362 17.0396 21.4589C17.0396 23.3959 18.6098 24.9662 20.5469 24.9662C21.7695 24.9662 22.8455 24.3402 23.4733 23.3916C22.919 23.7584 22.2549 23.9725 21.5406 23.9725Z" fill="#666666"/>
<path d="M20.5469 23.096C21.4508 23.096 22.1836 22.3632 22.1836 21.4592C22.1836 20.5553 21.4508 19.8225 20.5469 19.8225C19.6429 19.8225 18.9102 20.5553 18.9102 21.4592C18.9102 22.3632 19.6429 23.096 20.5469 23.096Z" fill="#458FDE"/>
<path d="M16.8712 6.09033H0.514648V15.8346H16.8712V6.09033Z" fill="#FF7452"/>
<path d="M16.8004 6.10303H0.443848V15.3253H16.8004V6.10303Z" fill="#FF7452"/>
<path d="M16.8059 14.6785H0.438477V15.8476H16.8059V14.6785Z" fill="#E24642"/>
<path d="M11.2321 6.10303H5.83789V15.8473H11.2321V6.10303Z" fill="#C42725"/>
<path d="M10.0141 6.10303H7.22998V15.8473H10.0141V6.10303Z" fill="#5AC779"/>
<path d="M26.6847 15.4091H24.7264V10.1773C24.7264 9.45207 24.1364 8.8621 23.4112 8.8621H21.2484C21.0062 8.8621 20.8099 9.05837 20.8099 9.3005C20.8099 9.54264 21.0062 9.73891 21.2484 9.73891H23.4112C23.6529 9.73891 23.8496 9.93557 23.8496 10.1773V15.8475C23.8496 16.0896 24.0458 16.2859 24.288 16.2859H26.6847C26.9264 16.2859 27.1231 16.4825 27.1231 16.7243V20.0854H24.2455C23.6865 18.5851 22.2396 17.5134 20.5469 17.5134C18.8533 17.5134 17.4059 18.586 16.8475 20.0875C16.8337 20.0862 16.8199 20.0854 16.8058 20.0854H10.4502C9.89112 18.585 8.44428 17.5133 6.75153 17.5133C5.05879 17.5133 3.61195 18.585 3.05289 20.0854H0.876813V16.2858H16.8058C16.8075 16.2858 16.809 16.2856 16.8107 16.2856C16.8123 16.2856 16.8139 16.2858 16.8155 16.2858H16.8162C17.0584 16.2855 17.2543 16.0889 17.254 15.8467L17.2449 9.73886H19.0271C19.2693 9.73886 19.4655 9.54259 19.4655 9.30045C19.4655 9.05831 19.2693 8.86204 19.0271 8.86204H17.2442V5.71159C17.2442 5.46945 17.048 5.27318 16.8058 5.27318H10.7311C11.9766 4.68099 13.4303 3.94179 13.8305 3.54155C14.6396 2.73243 14.6396 1.41594 13.8305 0.606818C13.0215 -0.2023 11.7049 -0.202245 10.8958 0.606818C10.357 1.1456 9.20382 3.5939 8.62205 4.87266C8.04027 3.59395 6.88709 1.14566 6.34825 0.606873C5.53919 -0.202189 4.22264 -0.202189 3.41357 0.606873C3.02165 0.998802 2.80577 1.51992 2.80577 2.07421C2.80577 2.62851 3.02159 3.14962 3.41357 3.5416C3.81381 3.94184 5.26752 4.68099 6.513 5.27324H0.438406C0.196269 5.27324 0 5.4695 0 5.71164V7.66376C0 7.9059 0.196269 8.10217 0.438406 8.10217C0.680543 8.10217 0.876813 7.9059 0.876813 7.66376V6.15005H6.78073V15.4091H0.876813V10.2358C0.876813 9.99362 0.680543 9.79735 0.438406 9.79735C0.196269 9.79735 0 9.99362 0 10.2358V15.8475V21.9268C0 21.9366 0.000830946 21.9463 0.0014403 21.956C0.000775549 21.9657 0 21.9753 0 21.9853C0 22.7105 0.58997 23.3005 1.31522 23.3005H3.26328C3.92599 24.5508 5.2406 25.4049 6.75153 25.4049C8.26247 25.4049 9.57708 24.5508 10.2398 23.3005H17.0587C17.7214 24.5508 19.036 25.4049 20.547 25.4049C22.0583 25.4049 23.3732 24.5504 24.0357 23.2995C24.0419 23.2998 24.048 23.3005 24.0543 23.3005H26.6848C27.41 23.3005 28 22.7105 28 21.9853V20.5239V16.7243C27.9999 15.9991 27.4099 15.4091 26.6847 15.4091ZM16.3674 15.4091H10.4634V6.15005H16.3674V15.4091ZM11.5159 1.22687C11.7422 1.00052 12.0432 0.875878 12.3632 0.875878C12.6833 0.875878 12.9843 1.00057 13.2106 1.22687C13.6778 1.69408 13.6778 2.45434 13.2106 2.92161C12.8724 3.25969 11.1077 4.13556 9.60682 4.83062C10.3019 3.32982 11.1778 1.56501 11.5159 1.22687ZM3.68263 2.07421C3.68263 1.75413 3.80728 1.45316 4.03363 1.22687C4.25997 1.00052 4.56089 0.875878 4.88097 0.875878C5.20105 0.875878 5.50201 1.00057 5.72831 1.22687C6.06645 1.56501 6.94226 3.32977 7.63738 4.83062C6.13652 4.13545 4.37176 3.25969 4.03363 2.92161C3.80733 2.69526 3.68263 2.39435 3.68263 2.07421ZM7.6576 6.15005H9.5866V15.4091H7.6576V6.15005ZM1.31522 22.4237C1.07347 22.4237 0.876813 22.227 0.876813 21.9853C0.876813 21.9754 0.875981 21.9658 0.875372 21.956C0.876037 21.9463 0.876813 21.9367 0.876813 21.9268V20.9623H2.83817C2.81762 21.1252 2.80577 21.2907 2.80577 21.4591C2.80577 21.7918 2.84765 22.1148 2.92548 22.4236L1.31522 22.4237ZM6.75153 24.5281C5.05934 24.5281 3.68263 23.1514 3.68263 21.4592C3.68263 19.7669 5.05929 18.3903 6.75153 18.3903C8.44378 18.3903 9.82043 19.7669 9.82043 21.4592C9.82043 23.1514 8.44372 24.5281 6.75153 24.5281ZM10.5775 22.4237C10.6554 22.1148 10.6972 21.7918 10.6972 21.4592C10.6972 21.2908 10.6854 21.1252 10.6648 20.9623H16.6336C16.613 21.1252 16.6012 21.2908 16.6012 21.4592C16.6012 21.7918 16.643 22.1148 16.7209 22.4237H10.5775ZM20.5469 24.5281C18.8548 24.5281 17.478 23.1514 17.478 21.4592C17.478 19.7669 18.8547 18.3903 20.5469 18.3903C22.2391 18.3903 23.6158 19.7669 23.6158 21.4592C23.6158 23.1514 22.2391 24.5281 20.5469 24.5281ZM26.6847 22.4237H24.3729C24.4508 22.1148 24.4926 21.7918 24.4926 21.4592C24.4926 21.2908 24.4808 21.1252 24.4602 20.9623H27.1231V21.9853C27.1231 22.227 26.9265 22.4237 26.6847 22.4237Z" fill="black"/>
<path d="M23.0895 14.4447V10.7035C23.0895 10.4614 22.8932 10.2651 22.651 10.2651H18.4423C18.2001 10.2651 18.0039 10.4614 18.0039 10.7035V14.4447C18.0039 14.6868 18.2001 14.8831 18.4423 14.8831H22.651C22.8932 14.8831 23.0895 14.6868 23.0895 14.4447ZM22.2126 14.0063H18.8807V11.1419H22.2126V14.0063Z" fill="black"/>
<path d="M18.4423 15.4092C18.2001 15.4092 18.0039 15.6054 18.0039 15.8476C18.0039 16.0897 18.2001 16.286 18.4423 16.286H19.6114C19.8536 16.286 20.0498 16.0897 20.0498 15.8476C20.0498 15.6054 19.8536 15.4092 19.6114 15.4092H18.4423Z" fill="black"/>
<path d="M6.75141 19.3838C5.60715 19.3838 4.67627 20.3147 4.67627 21.4589C4.67627 22.6032 5.60715 23.5341 6.75141 23.5341C7.89568 23.5341 8.82656 22.6032 8.82656 21.4589C8.82656 20.3147 7.89568 19.3838 6.75141 19.3838ZM6.75141 22.6573C6.09065 22.6573 5.55308 22.1197 5.55308 21.4589C5.55308 20.7982 6.09065 20.2606 6.75141 20.2606C7.41218 20.2606 7.94975 20.7982 7.94975 21.4589C7.94975 22.1197 7.41218 22.6573 6.75141 22.6573Z" fill="black"/>
<path d="M20.5468 19.3838C19.4026 19.3838 18.4717 20.3147 18.4717 21.4589C18.4717 22.6032 19.4026 23.5341 20.5468 23.5341C21.6911 23.5341 22.622 22.6032 22.622 21.4589C22.622 20.3147 21.6911 19.3838 20.5468 19.3838ZM20.5468 22.6573C19.8861 22.6573 19.3485 22.1197 19.3485 21.4589C19.3485 20.7982 19.8861 20.2606 20.5468 20.2606C21.2076 20.2606 21.7452 20.7982 21.7452 21.4589C21.7452 22.1197 21.2076 22.6573 20.5468 22.6573Z" fill="black"/>
</svg>
