<?xml version="1.0" encoding="UTF-8"?>
<svg id="Layer_1" data-name="Layer 1" xmlns="http://www.w3.org/2000/svg" viewBox="0 0 18 18">
  <defs>
    <style>
      .cls-1 {
        fill: none;
      }
    </style>
  </defs>
  <rect class="cls-1" width="18" height="18"/>
  <g>
    <path d="M11.39,6.52c-.23,0-.42,.19-.42,.42v7.97c0,.23,.19,.42,.42,.42s.42-.19,.42-.42V6.94c0-.23-.19-.42-.42-.42Z"/>
    <path d="M6.41,6.52c-.23,0-.42,.19-.42,.42v7.97c0,.23,.19,.42,.42,.42s.42-.19,.42-.42V6.94c0-.23-.19-.42-.42-.42Z"/>
    <path d="M2.79,5.36V15.74c0,.61,.23,1.19,.62,1.6,.39,.41,.94,.65,1.51,.65h7.98c.57,0,1.11-.24,1.51-.65,.39-.41,.62-.99,.62-1.6V5.36c.78-.21,1.29-.96,1.18-1.76-.1-.8-.79-1.4-1.6-1.4h-2.16v-.53c0-.44-.17-.87-.49-1.18C11.64,.17,11.21,0,10.77,0h-3.74c-.44,0-.87,.17-1.18,.48-.31,.31-.49,.74-.49,1.18v.53H3.2c-.81,0-1.49,.6-1.6,1.4-.1,.8,.4,1.56,1.18,1.76Zm10.1,11.8H4.91c-.72,0-1.28-.62-1.28-1.41V5.4H14.17V15.74c0,.79-.56,1.41-1.28,1.41ZM6.2,1.66c0-.22,.08-.43,.24-.59,.16-.15,.37-.24,.59-.24h3.74c.22,0,.43,.08,.59,.24,.16,.15,.24,.37,.24,.59v.53H6.2v-.53Zm-3,1.37H14.6c.42,0,.76,.34,.76,.76s-.34,.76-.76,.76H3.2c-.42,0-.76-.34-.76-.76s.34-.76,.76-.76Z"/>
    <path d="M8.9,6.52c-.23,0-.42,.19-.42,.42v7.97c0,.23,.19,.42,.42,.42s.42-.19,.42-.42V6.94c0-.23-.19-.42-.42-.42Z"/>
  </g>
</svg>