<svg width="42" height="42" viewBox="0 0 42 42" fill="none" xmlns="http://www.w3.org/2000/svg">
<rect width="42" height="42" rx="5" fill="#E8F7EF"/>
<path d="M33.2932 21C33.2932 14.2107 27.7893 8.70682 21 8.70682C14.2107 8.70682 8.70682 14.2107 8.70682 21C8.70682 27.7893 14.2107 33.2932 21 33.2932V35C13.268 35 7 28.732 7 21C7 13.268 13.268 7 21 7C28.732 7 35 13.268 35 21C35 28.732 28.732 35 21 35V33.2932C27.7893 33.2932 33.2932 27.7893 33.2932 21Z" fill="#14AE5C"/>
<path d="M25.9043 16.5169C26.2144 16.1619 26.7536 16.1256 27.1085 16.4357C27.4634 16.7458 27.4998 17.285 27.1897 17.6399L20.3014 25.5238C19.9923 25.8776 19.4552 25.915 19.1 25.6074L14.8533 21.9296C14.497 21.621 14.4584 21.0821 14.7669 20.7258C15.0755 20.3695 15.6144 20.3308 15.9707 20.6394L19.5751 23.7609L25.9043 16.5169Z" fill="#14AE5C"/>
</svg>
