<svg width="42" height="42" viewBox="0 0 42 42" fill="none" xmlns="http://www.w3.org/2000/svg">
<rect width="42" height="42" rx="5" fill="#EBF8FA"/>
<path d="M34.2253 12.4475H21.2885C20.8606 12.4475 20.5138 12.7851 20.5138 13.2013V25.5616H18.6247V21.745C18.6247 21.3287 18.2779 20.9911 17.85 20.9911C17.4221 20.9911 17.0753 21.3287 17.0753 21.745V25.5616H16.0118C15.5385 24.2816 14.2786 23.3636 12.8021 23.3636C11.3257 23.3636 10.0658 24.2816 9.59246 25.5616H9.07408C8.78478 25.5616 8.54935 25.3326 8.54935 25.0512V22.5235C8.54935 22.3723 8.6176 22.2298 8.73666 22.1324C8.75098 22.1207 8.76487 22.1085 8.77827 22.0959L10.6528 20.3234H13.4908C13.9187 20.3234 14.2655 19.9858 14.2655 19.5696C14.2655 19.1533 13.9187 18.8158 13.4908 18.8158H11.3663L12.7746 15.2039C13.2542 14.1765 14.3105 13.5114 15.4666 13.5077L17.0752 13.5127V16.568C17.0752 16.9843 17.4221 17.3218 17.8499 17.3218C18.2778 17.3218 18.6246 16.9842 18.6246 16.568V12.7612C18.6246 12.3458 18.2793 12.0087 17.8524 12.0074L15.4665 12C13.6899 12.0056 12.0745 13.0294 11.3509 14.6083C11.345 14.6213 11.3394 14.6345 11.3342 14.6479L9.52525 19.2873L7.71646 20.9977C7.2607 21.3816 7 21.9359 7 22.5235V25.0511C7 26.164 7.93045 27.0693 9.07413 27.0693H9.41604C9.61395 28.7169 11.0566 30 12.8021 30C14.5476 30 15.9902 28.7169 16.1882 27.0693H24.364C24.5619 28.7169 26.0046 30 27.7501 30C28.178 30 28.5248 29.6624 28.5248 29.2462C28.5248 28.8299 28.178 28.4923 27.7501 28.4923C26.7241 28.4923 25.8894 27.6802 25.8894 26.6818C25.8894 26.5935 25.8963 26.5067 25.909 26.4216C25.9166 26.3695 25.927 26.3181 25.9392 26.2676C25.9403 26.2628 25.9414 26.258 25.9425 26.2531C25.9547 26.2045 25.969 26.1567 25.9851 26.1098C25.9869 26.1046 25.9888 26.0992 25.9906 26.094C26.0074 26.0466 26.026 26 26.0467 25.9544C26.048 25.9516 26.0494 25.9488 26.0506 25.9461C26.2983 25.408 26.8087 25.0118 27.4108 24.902C27.4119 24.9018 27.4131 24.9016 27.4143 24.9014C27.4673 24.8918 27.521 24.8845 27.5755 24.8795C27.5795 24.8792 27.5835 24.879 27.5875 24.8786C27.6413 24.8741 27.6954 24.8713 27.7502 24.8713C27.8049 24.8713 27.8591 24.8741 27.9128 24.8786C27.9168 24.879 27.9208 24.8792 27.9249 24.8795C27.9792 24.8845 28.0329 24.8918 28.086 24.9014C28.0872 24.9016 28.0883 24.9018 28.0895 24.902C28.6916 25.0118 29.202 25.408 29.4497 25.9462C29.451 25.9489 29.4523 25.9516 29.4535 25.9544C29.4742 25.9999 29.4928 26.0466 29.5096 26.094C29.5115 26.0993 29.5133 26.1046 29.5151 26.1098C29.5312 26.1568 29.5455 26.2045 29.5577 26.2531C29.5589 26.2579 29.5599 26.2628 29.5611 26.2676C29.5732 26.3181 29.5836 26.3695 29.5912 26.4216C29.6039 26.5066 29.6108 26.5935 29.6108 26.6818C29.6108 27.0981 29.9576 27.4357 30.3855 27.4357C30.6675 27.4357 30.9136 27.2885 31.0491 27.0693H34.2253C34.6532 27.0693 35 26.7317 35 26.3155V13.2013C35 12.785 34.6532 12.4475 34.2253 12.4475ZM12.8021 28.4924C11.7762 28.4924 10.9415 27.6803 10.9415 26.6819C10.9415 25.6835 11.7762 24.8713 12.8021 24.8713C13.8281 24.8713 14.6628 25.6835 14.6628 26.6819C14.6628 27.6803 13.8281 28.4924 12.8021 28.4924ZM33.4505 25.5617H30.9597C30.946 25.5246 30.9312 25.4882 30.9163 25.4518C30.9144 25.4473 30.9127 25.4429 30.9109 25.4384C30.8951 25.4007 30.8785 25.3634 30.8614 25.3263C30.8609 25.325 30.8603 25.3238 30.8597 25.3225C30.3831 24.2943 29.3839 23.5436 28.193 23.3925C28.1736 23.39 28.1542 23.3875 28.1346 23.3853C28.1088 23.3824 28.083 23.38 28.057 23.3777C28.0267 23.375 27.9963 23.3728 27.9658 23.3709C27.946 23.3696 27.9264 23.3683 27.9066 23.3674C27.8547 23.3651 27.8026 23.3636 27.7502 23.3636C27.6978 23.3636 27.6457 23.3651 27.5938 23.3674C27.5739 23.3683 27.5543 23.3696 27.5346 23.3709C27.5041 23.3727 27.4736 23.375 27.4433 23.3777C27.4174 23.38 27.3915 23.3824 27.3657 23.3853C27.3462 23.3875 27.3267 23.39 27.3073 23.3925C26.1169 23.5435 25.1181 24.2937 24.6412 25.3213C24.6403 25.3233 24.6393 25.3253 24.6384 25.3274C24.6216 25.3637 24.6054 25.4003 24.5899 25.4374C24.5874 25.443 24.5853 25.4488 24.583 25.4544C24.5684 25.4899 24.5539 25.5255 24.5406 25.5615H22.0638H22.0633V13.9552H33.4506V25.5617H33.4505Z" fill="#00C3D0"/>
</svg>
