<svg width="42" height="42" viewBox="0 0 42 42" fill="none" xmlns="http://www.w3.org/2000/svg">
<rect width="42" height="42" rx="5" fill="#F9F1E6"/>
<path d="M34.1882 11.9088H27.816C27.8175 11.8656 27.8186 11.8226 27.8186 11.7793C27.8186 9.69535 26.1072 8 24.0035 8C22.785 8 21.699 8.56947 21 9.45293C20.3011 8.56936 19.215 8 17.9966 8C15.8929 8 14.1814 9.69535 14.1814 11.7793C14.1814 11.8226 14.1826 11.8656 14.1841 11.9088H7.81173C7.3634 11.9088 7 12.2688 7 12.7129V17.9258C7 18.3698 7.3634 18.7299 7.81173 18.7299H9.10809V33.1959C9.10809 33.6399 9.47149 34 9.91981 34H32.0802C32.5284 34 32.8919 33.6399 32.8919 33.1959V21.9491C32.8919 21.5051 32.5284 21.145 32.0802 21.145C31.632 21.145 31.2685 21.5051 31.2685 21.9491V32.3919H24.9503V27.9693C24.9503 27.7209 24.8344 27.4864 24.6364 27.3342L21.4977 24.9203C21.2048 24.6949 20.795 24.695 20.5022 24.9202L17.3634 27.3342C17.1653 27.4865 17.0495 27.721 17.0495 27.9693V32.3919H10.7315V18.73H17.0495V23.8147C17.0495 24.1217 17.226 24.402 17.5044 24.5369C17.6177 24.5918 17.7397 24.6189 17.8612 24.6189C18.0382 24.6189 18.214 24.5616 18.3591 24.4499L21 22.4189L23.641 24.4499C23.8857 24.6381 24.2174 24.6717 24.4956 24.5369C24.774 24.4019 24.9505 24.1217 24.9505 23.8147V13.5169H33.3766V17.1217H28.1433C27.6951 17.1217 27.3316 17.4818 27.3316 17.9258C27.3316 18.3698 27.6951 18.7299 28.1433 18.7299H34.1883C34.6365 18.7299 35 18.3698 35 17.9258V12.7129C34.9999 12.2687 34.6365 11.9088 34.1882 11.9088ZM18.6729 28.3631L20.9999 26.5734L23.3269 28.3631V32.3919H18.6729V28.3631ZM17.0495 17.1217H8.62345V13.5169H17.0495V17.1217ZM17.8613 11.9087H15.8087C15.8061 11.8657 15.8048 11.8227 15.8048 11.7793C15.8048 10.5822 16.788 9.60824 17.9965 9.60824C19.2051 9.60824 20.1882 10.5822 20.1882 11.7793C20.1882 11.8227 20.1869 11.8658 20.1844 11.9087H17.8613ZM23.327 22.1725L21.4978 20.7658C21.3513 20.6532 21.1757 20.5968 21 20.5968C20.8244 20.5968 20.6487 20.6531 20.5023 20.7658L18.6731 22.1725V13.5169H20.8491H21.1511H23.3271V22.1725H23.327ZM26.1913 11.9087H24.1387H21.8155C21.813 11.8657 21.8117 11.8227 21.8117 11.7793C21.8117 10.5822 22.7949 9.60824 24.0034 9.60824C25.2119 9.60824 26.1951 10.5822 26.1951 11.7793C26.1951 11.8226 26.1938 11.8657 26.1913 11.9087Z" fill="#BF6A02"/>
</svg>
